<svg id="Capa_1" data-name="Capa 1" xmlns="http://www.w3.org/2000/svg" viewBox="0 0 270 270"><defs><style>.cls-1{fill:#111;}.cls-2{fill:#9bdfc1;}</style></defs><circle class="cls-1" cx="135" cy="135" r="135"/><g id="x"><path class="cls-2" d="M420.18,534.77V520.63h18.37c12.33-.23,23.74-3.77,29.79-9l7.53-6.62a9.84,9.84,0,0,1,6.61-2.39h35a10.68,10.68,0,0,1,6.61,2.39l7.53,6.62c6.05,5.25,17.46,8.67,29.79,9h18.37v14.14H561.1c-15.74,0-30.23-5-38.68-12.43l-17-14.84a8,8,0,0,0-10.73,0l-17,14.84c-8.56,7.41-23.05,12.43-38.79,12.43Z" transform="translate(-365 -365)"/></g><g id="x-2" data-name="x"><path class="cls-2" d="M420.18,493.44V479.29h18.37c12.33-.23,23.74-3.77,29.79-9l7.53-6.61a9.8,9.8,0,0,1,6.61-2.4h35a10.63,10.63,0,0,1,6.61,2.4l7.53,6.61c6.05,5.25,17.46,8.68,29.79,9h18.37v14.15H561.1c-15.74,0-30.23-5-38.68-12.44l-17-14.83a8,8,0,0,0-10.73,0l-17,14.83c-8.56,7.42-23.05,12.44-38.79,12.44Z" transform="translate(-365 -365)"/></g></svg>