<?xml version="1.0" encoding="utf-8"?>
<!-- Generator: Adobe Illustrator 25.4.1, SVG Export Plug-In . SVG Version: 6.00 Build 0)  -->
<svg version="1.1" id="Capa_1" xmlns="http://www.w3.org/2000/svg" xmlns:xlink="http://www.w3.org/1999/xlink" x="0px" y="0px"
	 viewBox="0 0 1000 1000" style="enable-background:new 0 0 1000 1000;" xml:space="preserve">
<style type="text/css">
	.st0{fill:#9BDFC1;}
</style>
<g>
	<g id="x_00000172407587088035315740000002895532727616800179_">
		<g>
			<path class="st0" d="M419.5,537.1v-14.3c0.5,0,18.5,0,18.5,0c12.4-0.2,23.9-3.8,30-9.1l7.6-6.7c1.8-1.6,4.1-2.4,6.7-2.4h35.3
				c2.4,0,4.8,0.9,6.7,2.4l7.6,6.7c6.1,5.3,17.6,8.7,30,9.1c0,0,18.1,0,18.5,0v14.3c-1.2,0-18.3,0-18.9,0c-15.9,0-30.5-5.1-39-12.5
				l-17.2-15c-1.5-1.4-3.5-2.1-5.4-2.1s-3.9,0.7-5.4,2.1l-17.2,15c-8.6,7.5-23.3,12.5-39.1,12.5
				C437.8,537.1,420.6,537.1,419.5,537.1z"/>
		</g>
	</g>
	<g id="x_00000163768248880444448540000010445657426462190504_">
		<g>
			<path class="st0" d="M419.5,495.4v-14.3c0.5,0,18.5,0,18.5,0c12.4-0.2,23.9-3.8,30-9.1l7.6-6.7c1.8-1.6,4.1-2.4,6.7-2.4h35.3
				c2.4,0,4.8,0.9,6.7,2.4l7.6,6.7c6.1,5.3,17.6,8.7,30,9.1c0,0,18.1,0,18.5,0v14.3c-1.2,0-18.3,0-18.9,0c-15.9,0-30.5-5.1-39-12.5
				l-17.2-15c-1.5-1.4-3.5-2.1-5.4-2.1s-3.9,0.7-5.4,2.1l-17.2,15c-8.6,7.5-23.3,12.5-39.1,12.5
				C437.8,495.4,420.6,495.4,419.5,495.4z"/>
		</g>
	</g>
</g>
</svg>
