<?xml version="1.0" encoding="utf-8"?>
<!-- Generator: Adobe Illustrator 25.4.1, SVG Export Plug-In . SVG Version: 6.00 Build 0)  -->
<svg version="1.1" id="Capa_1" xmlns="http://www.w3.org/2000/svg" xmlns:xlink="http://www.w3.org/1999/xlink" x="0px" y="0px"
	 viewBox="0 0 1000 1000" style="enable-background:new 0 0 1000 1000;" xml:space="preserve">
<style type="text/css">
	.st0{fill:#FFFFFF;}
	.st1{fill:#9BDFC1;}
	.st2{fill:#272525;}
</style>
<g>
	<g>
		<g>
			<g id="e_00000127005677348438905550000017790967597332651905_">
				<path class="st0" d="M339,536h-59.7c-19.6,0-35.6-16.1-35.6-35.8c0-19.4,16.8-35.8,36.8-35.8c8.3-0.4,16.8-0.5,25.2-0.4
					c10,0.5,21.9-0.7,31.8,5.8c17.3,11.5,10.8,35.2-11.2,36.2c-11.3,1-28.3,0.5-41.1,0.4c-9,0-18.2,0-27.5-0.7c-0.5,0-1,0.5-0.8,1
					c2.7,9.9,11.6,17,22.3,17H339V536z M257.6,492.3c-0.2,0.5,0.2,1,0.7,1.1c8.8,0.7,17.8,0.6,27,0.7c12.4,0,29.4,0.5,40-0.4
					c13-1,10.9-10.2,5.3-13.6c-5.8-4.1-18.3-3.4-25.1-3.7c-8.2-0.1-16.5,0-24.7,0.4h-0.3C270.2,476.7,261.1,483.3,257.6,492.3z"/>
			</g>
			<g id="v_00000134961789827148400480000011458654078733675953_">
				<path class="st0" d="M498.2,464.4v12.4c-0.6,0-15.8,0-16,0c-10.1,0-19.7,6.5-24.9,15.7c-1,1.5-20.8,37-22.5,38.7
					c-2.5,3.1-6.8,5-10.7,4.9c-3.9,0-8.2-1.8-10.7-4.9c-1.7-1.7-21.5-37.2-22.5-38.7c-5.3-9.2-14.8-15.7-25-15.7c-0.2,0-15.3,0-16,0
					v-12.4c1.2,0,15.8,0,16.5,0c14.3,0,27.8,9,35.1,21.9c0,0.1,20.7,36.2,20.9,36.5c0.3,0.6,0.9,0.8,1.5,0.8s1.2-0.3,1.5-0.8
					c0.1-0.3,20.8-36.4,20.9-36.5c7.4-12.9,20.8-21.9,35.1-21.9C482.4,464.4,497,464.4,498.2,464.4z"/>
			</g>
			<g id="o_00000149343841400089877150000015008464853874457279_">
				<path class="st0" d="M578.3,536h-47.8c-19.8,0-35.8-16.1-35.8-35.8c0-19.8,16.1-35.8,35.8-35.8h47.8c19.8,0,35.8,16.1,35.8,35.8
					C614.2,519.9,598.1,536,578.3,536z M530.5,476.7c-12.9,0-23.5,10.5-23.5,23.5c0,12.9,10.5,23.5,23.5,23.5h47.8
					c12.9,0,23.5-10.5,23.5-23.5c0-12.9-10.5-23.5-23.5-23.5H530.5z"/>
			</g>
			<g id="x_00000074403193121424034990000007982214297719660177_">
				<g>
					<path class="st1" d="M756.3,464.3v12.4c-0.4,0-16.1,0-16.1,0c-10.8,0.2-20.8,3.3-26.1,7.9l-6.6,5.8c-1.6,1.4-3.6,2.1-5.8,2.1
						H671c-2.1,0-4.2-0.8-5.8-2.1l-6.6-5.8c-5.3-4.6-15.3-7.6-26.1-7.9c0,0-15.7,0-16.1,0v-12.4c1,0,15.9,0,16.4,0
						c13.8,0,26.5,4.4,33.9,10.9l14.9,13c1.3,1.2,3,1.8,4.7,1.8s3.4-0.6,4.7-1.8l14.9-13c7.5-6.5,20.2-10.9,34-10.9
						C740.4,464.4,755.3,464.3,756.3,464.3z"/>
				</g>
			</g>
			<g id="x_00000172407587088035315740000002895532727616800179_">
				<g>
					<path class="st1" d="M616.5,536v-12.4c0.4,0,16.1,0,16.1,0c10.8-0.2,20.8-3.3,26.1-7.9l6.6-5.8c1.6-1.4,3.6-2.1,5.8-2.1h30.7
						c2.1,0,4.2,0.8,5.8,2.1l6.6,5.8c5.3,4.6,15.3,7.6,26.1,7.9c0,0,15.7,0,16.1,0V536c-1,0-15.9,0-16.4,0
						c-13.8,0-26.5-4.4-33.9-10.9l-14.9-13c-1.3-1.2-3-1.8-4.7-1.8s-3.4,0.6-4.7,1.8l-14.9,13c-7.5,6.5-20.2,10.9-34,10.9
						C632.4,536,617.5,536,616.5,536z"/>
				</g>
			</g>
		</g>
		<g>
			<polygon class="st2" points="685.3,492.5 685.3,492.5 685.2,492.5 			"/>
		</g>
	</g>
</g>
</svg>
